<?xml version="1.0" encoding="utf-8"?>
<!-- Generator: Adobe Illustrator 27.9.0, SVG Export Plug-In . SVG Version: 6.00 Build 0)  -->
<svg version="1.1" xmlns="http://www.w3.org/2000/svg" xmlns:xlink="http://www.w3.org/1999/xlink" x="0px" y="0px"
	 viewBox="0 0 720 249.4" style="enable-background:new 0 0 720 249.4;" xml:space="preserve">
<style type="text/css">
	.st0{fill:url(#SVGID_1_);}
	.st1{fill:url(#SVGID_00000145021576304092641650000016037387180823222975_);}
	.st2{fill:url(#SVGID_00000093895767229841041760000009784127988813450374_);}
	.st3{fill:url(#SVGID_00000016764608247753093160000008442699876088281755_);}
	.st4{fill:url(#SVGID_00000160884643484073054910000017639163634785151362_);}
	.st5{fill:url(#SVGID_00000170276545240257133630000002593728473506633904_);}
	.st6{fill:url(#SVGID_00000007420163184649860050000003090661459845768633_);}
	.st7{fill:url(#SVGID_00000097476498802271076200000011376215418996268194_);}
	.st8{fill:url(#SVGID_00000033344210969577496550000000911091994066586533_);}
	.st9{fill:url(#SVGID_00000160894046121147381740000004218386448595951549_);}
	.st10{fill:url(#SVGID_00000047756521584708399480000003742942295339184032_);}
	.st11{fill:url(#SVGID_00000142859663917549037770000017806545258991110828_);}
	.st12{fill:url(#SVGID_00000122680535919886582650000014754112893990766227_);}
	.st13{fill:url(#SVGID_00000155142403563598582380000005004159985973544582_);}
	.st14{fill:url(#SVGID_00000124157504802776627620000005918734451347047063_);}
	.st15{fill:url(#SVGID_00000145778977669967358720000012883483532507535768_);}
	.st16{fill:url(#SVGID_00000154392246527325100870000004946218365118056376_);}
	.st17{fill:url(#SVGID_00000052812257696759530420000009929877609810079133_);}
	.st18{fill:url(#SVGID_00000070828244064957649090000004755910056603409585_);}
	.st19{fill:#FFFFFF;}
</style>
<g id="icon">
	<g>
		<g>
			<g>
				<g>
					<linearGradient id="SVGID_1_" gradientUnits="userSpaceOnUse" x1="152.4232" y1="90.4845" x2="166.1508" y2="84.3726">
						<stop  offset="0" style="stop-color:#300F89"/>
						<stop  offset="1" style="stop-color:#4A1998"/>
					</linearGradient>
					<polygon class="st0" points="150.8,86.9 152.7,89.2 156,93.3 166.5,85.2 158,83.5 					"/>
					
						<linearGradient id="SVGID_00000125594934693215026500000006704184820015711141_" gradientUnits="userSpaceOnUse" x1="145.8623" y1="83.6446" x2="165.7682" y2="78.3108">
						<stop  offset="0" style="stop-color:#674DE8"/>
						<stop  offset="1" style="stop-color:#7034C5"/>
					</linearGradient>
					<polygon style="fill:url(#SVGID_00000125594934693215026500000006704184820015711141_);" points="164.9,75.2 144.7,79.4 
						150.8,86.9 158,83.5 					"/>
					
						<linearGradient id="SVGID_00000060752320865528871620000000202076458754700976_" gradientUnits="userSpaceOnUse" x1="158.0303" y1="78.1869" x2="184.3311" y2="78.1869">
						<stop  offset="0" style="stop-color:#581EA1"/>
						<stop  offset="0.2886" style="stop-color:#7729B4"/>
						<stop  offset="0.9179" style="stop-color:#C746E3"/>
						<stop  offset="1" style="stop-color:#D24AE9"/>
					</linearGradient>
					<polygon style="fill:url(#SVGID_00000060752320865528871620000000202076458754700976_);" points="158,83.5 166.5,85.2 
						184.3,71.2 					"/>
					
						<linearGradient id="SVGID_00000088118794747995123430000006521299607871956359_" gradientUnits="userSpaceOnUse" x1="167.6639" y1="87.0354" x2="174.6975" y2="67.7106">
						<stop  offset="0" style="stop-color:#674DE8"/>
						<stop  offset="0.9927" style="stop-color:#EDA8F2"/>
					</linearGradient>
					<polygon style="fill:url(#SVGID_00000088118794747995123430000006521299607871956359_);" points="184.3,71.2 164.9,75.2 
						158,83.5 					"/>
				</g>
			</g>
			
				<linearGradient id="SVGID_00000093163233680104839010000012658102061440590752_" gradientUnits="userSpaceOnUse" x1="73.286" y1="189.3883" x2="115.604" y2="89.6934">
				<stop  offset="2.290464e-02" style="stop-color:#674DE7"/>
				<stop  offset="0.1771" style="stop-color:#764DE7"/>
				<stop  offset="0.4747" style="stop-color:#9E4BE8"/>
				<stop  offset="0.8123" style="stop-color:#D24AE9"/>
			</linearGradient>
			<polygon style="fill:url(#SVGID_00000093163233680104839010000012658102061440590752_);" points="103.1,84.4 86.6,98.8 86.6,195 
				103.1,178.5 			"/>
			
				<linearGradient id="SVGID_00000023959532089359621700000000738312320692502975_" gradientUnits="userSpaceOnUse" x1="164.0296" y1="186.7429" x2="86.5528" y2="186.7429">
				<stop  offset="2.290436e-02" style="stop-color:#674DE7"/>
				<stop  offset="0.2258" style="stop-color:#764AE4"/>
				<stop  offset="0.6155" style="stop-color:#9E43DC"/>
				<stop  offset="0.8123" style="stop-color:#B43FD8"/>
			</linearGradient>
			<polygon style="fill:url(#SVGID_00000023959532089359621700000000738312320692502975_);" points="86.6,195 154.5,195 164,178.5 
				103.1,178.5 			"/>
			
				<linearGradient id="SVGID_00000075882102269921193220000010161841473756879280_" gradientUnits="userSpaceOnUse" x1="124.2428" y1="102.4073" x2="158.4493" y2="104.7993">
				<stop  offset="0" style="stop-color:#724CE7"/>
				<stop  offset="0.2999" style="stop-color:#8B4BE8"/>
				<stop  offset="0.9349" style="stop-color:#CB4AE9"/>
				<stop  offset="1" style="stop-color:#D24AE9"/>
			</linearGradient>
			<polygon style="fill:url(#SVGID_00000075882102269921193220000010161841473756879280_);" points="158,110.8 144.7,122.7 
				125.6,112.9 125.6,83.6 146.7,97.6 149.6,106 			"/>
			
				<linearGradient id="SVGID_00000168796442599464856130000005462782164569316006_" gradientUnits="userSpaceOnUse" x1="106.7653" y1="96.4419" x2="118.9842" y2="78.9915">
				<stop  offset="0" style="stop-color:#674DE8"/>
				<stop  offset="0.5746" style="stop-color:#8942DA"/>
				<stop  offset="1" style="stop-color:#A439CE"/>
			</linearGradient>
			<polygon style="fill:url(#SVGID_00000168796442599464856130000005462782164569316006_);" points="125.6,83.6 109,98 109,79.3 			
				"/>
			
				<linearGradient id="SVGID_00000088109628461250445460000000985292700297883304_" gradientUnits="userSpaceOnUse" x1="116.7505" y1="119.0507" x2="158.1494" y2="178.1744">
				<stop  offset="2.290464e-02" style="stop-color:#674DE7"/>
				<stop  offset="0.1984" style="stop-color:#764DE7"/>
				<stop  offset="0.5371" style="stop-color:#9E4BE8"/>
				<stop  offset="0.9212" style="stop-color:#D24AE9"/>
			</linearGradient>
			<polygon style="fill:url(#SVGID_00000088109628461250445460000000985292700297883304_);" points="166.2,172.6 125.6,150.4 
				125.6,112.9 137,129.7 			"/>
			
				<linearGradient id="SVGID_00000174596491178084652120000009335165515444991156_" gradientUnits="userSpaceOnUse" x1="117.2814" y1="172.5679" x2="117.2814" y2="83.5947">
				<stop  offset="2.290464e-02" style="stop-color:#674DE7"/>
				<stop  offset="0.1929" style="stop-color:#764DE7"/>
				<stop  offset="0.5208" style="stop-color:#9E4BE8"/>
				<stop  offset="0.8927" style="stop-color:#D24AE9"/>
			</linearGradient>
			<polygon style="fill:url(#SVGID_00000174596491178084652120000009335165515444991156_);" points="125.6,83.6 125.6,150.4 
				109,172.6 109,98 			"/>
			
				<linearGradient id="SVGID_00000050642854513650461340000011849951991363330976_" gradientUnits="userSpaceOnUse" x1="107.9328" y1="73.1734" x2="139.8233" y2="67.5503">
				<stop  offset="2.290464e-02" style="stop-color:#674DE7"/>
				<stop  offset="0.178" style="stop-color:#764DE7"/>
				<stop  offset="0.4773" style="stop-color:#9E4BE8"/>
				<stop  offset="0.8168" style="stop-color:#D24AE9"/>
				<stop  offset="0.9927" style="stop-color:#EDA8F2"/>
			</linearGradient>
			<polygon style="fill:url(#SVGID_00000050642854513650461340000011849951991363330976_);" points="125.6,83.6 125.6,83.6 
				137.5,54.4 109,79.3 125.6,83.6 			"/>
			
				<linearGradient id="SVGID_00000103255993524596377690000014908195215213348250_" gradientUnits="userSpaceOnUse" x1="137.7975" y1="175.049" x2="135.5623" y2="149.5004">
				<stop  offset="2.290464e-02" style="stop-color:#674DE7"/>
				<stop  offset="0.2395" style="stop-color:#764CE7"/>
				<stop  offset="0.6551" style="stop-color:#9E4BE8"/>
				<stop  offset="1" style="stop-color:#C349E9"/>
			</linearGradient>
			<polygon style="fill:url(#SVGID_00000103255993524596377690000014908195215213348250_);" points="166.2,172.6 109,172.6 
				125.6,150.4 			"/>
			
				<linearGradient id="SVGID_00000143582788587076690880000013056635246375239051_" gradientUnits="userSpaceOnUse" x1="131.534" y1="83.5947" x2="131.534" y2="54.4291">
				<stop  offset="0" style="stop-color:#674DE8"/>
				<stop  offset="0.814" style="stop-color:#674DE8"/>
			</linearGradient>
			<polygon style="fill:url(#SVGID_00000143582788587076690880000013056635246375239051_);" points="137.5,70.5 137.5,54.4 
				125.6,83.6 			"/>
			
				<linearGradient id="SVGID_00000124146655421141314220000003450654751141287066_" gradientUnits="userSpaceOnUse" x1="183.367" y1="133.0046" x2="183.367" y2="148.4679">
				<stop  offset="0" style="stop-color:#9A4AE8"/>
				<stop  offset="1" style="stop-color:#D24AE9"/>
			</linearGradient>
			<polygon style="fill:url(#SVGID_00000124146655421141314220000003450654751141287066_);" points="178.5,133 179.3,148.5 
				188.2,133 			"/>
			
				<linearGradient id="SVGID_00000064333066322848838500000004136767805322148235_" gradientUnits="userSpaceOnUse" x1="125.5583" y1="101.7434" x2="188.2239" y2="101.7434">
				<stop  offset="0" style="stop-color:#9A4AE8"/>
				<stop  offset="0.8168" style="stop-color:#D24AE9"/>
				<stop  offset="0.9927" style="stop-color:#EDA8F2"/>
			</linearGradient>
			<polygon style="fill:url(#SVGID_00000064333066322848838500000004136767805322148235_);" points="125.6,83.6 146.7,97.6 
				156,103.7 158,110.8 178.5,133 188.2,133 156,93.3 156,93.3 152.7,89.2 137.5,70.5 125.6,83.6 			"/>
			
				<linearGradient id="SVGID_00000028290019556933513080000005460489407821820060_" gradientUnits="userSpaceOnUse" x1="151.657" y1="124.4587" x2="183.5554" y2="139.3331">
				<stop  offset="0" style="stop-color:#674DE8"/>
				<stop  offset="1" style="stop-color:#9332C4"/>
			</linearGradient>
			<polygon style="fill:url(#SVGID_00000028290019556933513080000005460489407821820060_);" points="158,110.8 154.7,132.8 
				167.5,148.5 179.3,148.5 178.5,133 			"/>
			
				<linearGradient id="SVGID_00000062876146052769263190000009134761023640622737_" gradientUnits="userSpaceOnUse" x1="145.399" y1="132.58" x2="153.4446" y2="109.214">
				<stop  offset="2.290464e-02" style="stop-color:#674DE7"/>
				<stop  offset="0.2662" style="stop-color:#764CE7"/>
				<stop  offset="0.7334" style="stop-color:#9E4AE8"/>
				<stop  offset="1" style="stop-color:#B749E9"/>
			</linearGradient>
			<polygon style="fill:url(#SVGID_00000062876146052769263190000009134761023640622737_);" points="137,129.7 137,129.7 
				154.7,132.8 158,110.8 			"/>
			
				<linearGradient id="SVGID_00000112623681318802453110000016536124081657175440_" gradientUnits="userSpaceOnUse" x1="146.7159" y1="104.2013" x2="158.0296" y2="104.2013">
				<stop  offset="0" style="stop-color:#300F89"/>
				<stop  offset="1" style="stop-color:#4A1998"/>
			</linearGradient>
			<polygon style="fill:url(#SVGID_00000112623681318802453110000016536124081657175440_);" points="146.7,97.6 149.6,106 
				158,110.8 156,103.7 			"/>
			
				<linearGradient id="SVGID_00000089569211813559279640000003826027135608295102_" gradientUnits="userSpaceOnUse" x1="144.7155" y1="121.2824" x2="125.5583" y2="121.2824">
				<stop  offset="0" style="stop-color:#674DE8"/>
				<stop  offset="0.6967" style="stop-color:#5730BA"/>
				<stop  offset="1" style="stop-color:#4F22A5"/>
			</linearGradient>
			<polygon style="fill:url(#SVGID_00000089569211813559279640000003826027135608295102_);" points="144.7,122.7 137,129.7 
				125.6,112.9 125.6,112.9 			"/>
		</g>
	</g>
</g>
<g id="text">
	<g>
		<polygon class="st19" points="264.9,107 264.9,94.1 212.3,94.1 212.3,172.7 264.9,172.7 264.9,159.8 225.1,159.8 225.1,139.8 
			259.9,139.8 253.3,127 225.1,127 225.1,107 		"/>
		<polygon class="st19" points="318.4,116.8 299.3,157.8 280.3,116.8 266.2,116.8 292.1,172.7 306.6,172.7 332.5,116.8 		"/>
		<path class="st19" d="M390,172.7v-56h-12.8v4.9l-0.6-0.5c-2.2-1.7-4.7-3.1-7.5-4.2c-2.8-1.1-6.1-1.7-9.7-1.7
			c-4.1,0-7.9,0.8-11.3,2.3c-3.5,1.5-6.5,3.6-9,6.3c-2.5,2.7-4.5,5.8-5.9,9.4c-1.4,3.6-2.1,7.4-2.1,11.5c0,4,0.7,7.9,2.1,11.4
			c1.4,3.6,3.4,6.7,5.9,9.4c2.5,2.7,5.5,4.8,9,6.3c3.4,1.5,7.3,2.3,11.3,2.3c4.4,0,8.3-0.8,11.6-2.4l-4.6-11.4c-1.8,0.7-3.8,1-5.9,1
			c-2.2,0-4.4-0.4-6.4-1.2c-2-0.8-3.9-2-5.4-3.7c-3.2-3.2-4.9-7.2-4.9-11.7c0-4.6,1.6-8.6,4.9-11.8c1.5-1.5,3.3-2.7,5.4-3.6
			c2-0.8,4.2-1.3,6.4-1.3c4.6,0,8.6,1.6,11.8,4.9c3.2,3.2,4.9,7.2,4.9,11.8v27.9H390z"/>
		<rect x="398.8" y="94.1" class="st19" width="12.8" height="78.5"/>
		<polygon class="st19" points="420.5,94.2 420.5,172.7 464.5,172.7 464.5,159.8 433.3,159.8 433.3,94.2 		"/>
		<path class="st19" d="M522.4,133.2c-1.5-3.6-3.7-6.7-6.3-9.4c-2.7-2.7-5.8-4.8-9.4-6.3c-3.6-1.5-7.4-2.3-11.5-2.3
			c-4.1,0-8,0.8-11.5,2.3c-3.6,1.5-6.7,3.7-9.4,6.3c-2.7,2.7-4.8,5.8-6.3,9.4c-1.5,3.6-2.3,7.4-2.3,11.5c0,4,0.8,7.8,2.3,11.4
			c1.5,3.6,3.6,6.7,6.3,9.4c2.7,2.7,5.8,4.8,9.4,6.3c3.6,1.5,7.4,2.3,11.5,2.3c4.5,0,8.6-0.9,12.4-2.6c3.6-1.7,6.8-4,9.4-6.9
			l-13.5-5.4c-2.4,1.4-5.2,2.1-8.3,2.1c-2.2,0-4.4-0.4-6.4-1.2c-2-0.8-3.8-2-5.4-3.6c-1.5-1.4-2.6-3-3.4-4.8l-0.2-0.5h44.2
			c0.5-2,0.7-4.2,0.7-6.4C524.6,140.6,523.9,136.8,522.4,133.2z M479.7,138.3l0.2-0.5c0.8-1.8,1.9-3.4,3.4-4.9
			c3.4-3.2,7.4-4.9,11.8-4.9c4.6,0,8.6,1.6,11.8,4.9c1.5,1.5,2.6,3.1,3.4,4.9l0.2,0.5H479.7z"/>
		<path class="st19" d="M557.1,128c3.7,0,6.9,1.3,9.6,4c2.7,2.5,4.1,5.8,4.1,9.7v31h12.8v-31c0-3.6-0.6-7.1-1.7-10.3
			c-1.2-3.2-2.8-6-4.9-8.4c-2.1-2.4-4.7-4.3-7.6-5.7c-3-1.4-6.3-2.1-9.9-2.1c-3.1,0-6,0.5-8.5,1.6c-2.5,1.1-4.8,2.5-6.8,4.2
			l-0.6,0.5v-4.7h-12.8v55.9h12.8v-31c0-3.8,1.3-7,4-9.7C550.1,129.4,553.3,128,557.1,128z"/>
		<path class="st19" d="M628.7,163.4c0.8-2.1,1.3-4.5,1.3-7.1c0-2.9-0.8-5.5-2.4-7.6c-1.6-2.1-3.6-4-5.7-5.4
			c-2.2-1.4-4.4-2.6-6.4-3.4c-2.1-0.8-3.6-1.3-4.5-1.6c-0.9-0.2-1.9-0.5-3-0.8c-1.1-0.3-2.2-0.7-3.2-1.1c-1-0.4-1.9-1-2.6-1.7
			c-0.8-0.7-1.1-1.6-1.1-2.6c0-1.8,0.9-3.1,2.5-4c1.6-0.8,3.2-1.2,4.9-1.2c2.1,0,4.1,0.5,5.9,1.4c1.7,0.9,3.4,2.2,4.8,4.1l9-9
			c-1.3-1.4-2.9-2.8-4.7-4c-1.7-1-3.9-2-6.5-2.9c-2.6-0.9-5.9-1.3-9.7-1.3c-2.4,0-4.8,0.4-7.1,1.1c-2.3,0.7-4.3,1.8-6.1,3.3
			c-1.8,1.5-3.2,3.4-4.3,5.6c-1.1,2.2-1.6,5-1.6,8.1c0,3,0.8,5.6,2.4,7.7c1.6,2.1,3.6,3.9,5.7,5.3c2.2,1.4,4.4,2.5,6.5,3.2
			c2.2,0.8,3.7,1.3,4.6,1.6c0.7,0.2,1.5,0.5,2.6,0.7c1.1,0.3,2.2,0.6,3.2,1.1c1.1,0.5,2,1.1,2.8,1.8c0.8,0.8,1.3,1.6,1.3,2.7
			c0,1.4-0.6,2.6-1.8,3.6c-1.2,1-3,1.4-5.4,1.4c-1.5,0-3.5-0.3-5.7-1c-2.2-0.7-4.3-2.1-6.2-4.3l-8.8,8.8c2.3,2.3,5.4,4.2,9.2,5.8
			c3.9,1.6,8.2,2.5,12.7,2.5c3,0,5.7-0.4,8-1.3c2.4-0.9,4.4-2.2,6-3.8C626.6,167.4,627.8,165.5,628.7,163.4z"/>
	</g>
</g>
</svg>
